<svg width="52" height="46" viewBox="0 0 52 46" fill="none" xmlns="http://www.w3.org/2000/svg">
<path d="M4.33325 26.8333C4.33325 19.6056 4.33325 15.9907 6.87258 13.7463C9.41192 11.5019 13.4961 11.5 21.6666 11.5H30.3333C38.5037 11.5 42.5901 11.5 45.1272 13.7463C46.5442 14.9979 47.1704 16.675 47.4456 19.1667M47.6666 26.8333C47.6666 34.0611 47.6666 37.6759 45.1272 39.9203C42.5879 42.1647 38.5037 42.1667 30.3333 42.1667H21.6666C13.4961 42.1667 9.40975 42.1667 6.87258 39.9203C5.45559 38.6687 4.82942 36.9917 4.55425 34.5" stroke="#E93336" stroke-width="2" stroke-linecap="round"/>
<path d="M34.6666 11.5C34.6666 7.88515 34.6666 6.07965 33.3969 4.95648C32.1273 3.83331 30.0863 3.83331 25.9999 3.83331C21.9136 3.83331 19.8726 3.83331 18.6029 4.95648C17.3333 6.07965 17.3333 7.88515 17.3333 11.5" stroke="#E93336" stroke-width="2"/>
<path d="M29.25 26.8333H22.75M26 23.9583V29.7083" stroke="#F58633" stroke-width="2" stroke-linecap="round"/>
<path d="M25.9999 34.5C30.7864 34.5 34.6666 31.0675 34.6666 26.8333C34.6666 22.5991 30.7864 19.1666 25.9999 19.1666C21.2135 19.1666 17.3333 22.5991 17.3333 26.8333C17.3333 31.0675 21.2135 34.5 25.9999 34.5Z" stroke="#F58633" stroke-width="2"/>
</svg>
